<mxfile host="app.diagrams.net" modified="2024-01-21T20:44:05.754Z" agent="Mozilla/5.0 (Macintosh; Intel Mac OS X 10.15; rv:122.0) Gecko/20100101 Firefox/122.0" etag="bDlsdJwUNGetc20U3Gkt" version="22.1.21" type="google">
  <diagram name="Page-1" id="Pa88t5prRIfrzhz42qaq">
    <mxGraphModel dx="1242" dy="794" grid="1" gridSize="10" guides="1" tooltips="1" connect="1" arrows="1" fold="1" page="1" pageScale="1" pageWidth="850" pageHeight="1100" math="0" shadow="0">
      <root>
        <mxCell id="0" />
        <mxCell id="1" parent="0" />
        <mxCell id="NAVDK-rNsLttLk0ASDy8-3" style="edgeStyle=orthogonalEdgeStyle;rounded=0;orthogonalLoop=1;jettySize=auto;html=1;entryX=0;entryY=0.5;entryDx=0;entryDy=0;" edge="1" parent="1" source="NAVDK-rNsLttLk0ASDy8-1" target="NAVDK-rNsLttLk0ASDy8-2">
          <mxGeometry relative="1" as="geometry" />
        </mxCell>
        <mxCell id="NAVDK-rNsLttLk0ASDy8-4" value="&lt;div&gt;Send data to server&lt;/div&gt;" style="edgeLabel;html=1;align=center;verticalAlign=middle;resizable=0;points=[];" vertex="1" connectable="0" parent="NAVDK-rNsLttLk0ASDy8-3">
          <mxGeometry x="-0.0133" relative="1" as="geometry">
            <mxPoint as="offset" />
          </mxGeometry>
        </mxCell>
        <mxCell id="NAVDK-rNsLttLk0ASDy8-1" value="client" style="rounded=0;whiteSpace=wrap;html=1;" vertex="1" parent="1">
          <mxGeometry x="90" y="150" width="120" height="60" as="geometry" />
        </mxCell>
        <mxCell id="NAVDK-rNsLttLk0ASDy8-2" value="&lt;div&gt;Server&lt;/div&gt;" style="rounded=1;whiteSpace=wrap;html=1;" vertex="1" parent="1">
          <mxGeometry x="510" y="150" width="120" height="60" as="geometry" />
        </mxCell>
        <mxCell id="NAVDK-rNsLttLk0ASDy8-5" value="&lt;div&gt;Cron&lt;/div&gt;" style="rounded=1;whiteSpace=wrap;html=1;" vertex="1" parent="1">
          <mxGeometry x="530" y="450" width="120" height="60" as="geometry" />
        </mxCell>
        <mxCell id="NAVDK-rNsLttLk0ASDy8-7" style="edgeStyle=orthogonalEdgeStyle;rounded=0;orthogonalLoop=1;jettySize=auto;html=1;entryX=0.667;entryY=1.033;entryDx=0;entryDy=0;entryPerimeter=0;" edge="1" parent="1" source="NAVDK-rNsLttLk0ASDy8-5" target="NAVDK-rNsLttLk0ASDy8-2">
          <mxGeometry relative="1" as="geometry" />
        </mxCell>
        <mxCell id="NAVDK-rNsLttLk0ASDy8-8" value="&lt;div&gt;Regular call actualization script which track prices of ads&lt;/div&gt;" style="text;html=1;strokeColor=none;fillColor=none;align=center;verticalAlign=middle;whiteSpace=wrap;rounded=0;" vertex="1" parent="1">
          <mxGeometry x="610" y="300" width="110" height="60" as="geometry" />
        </mxCell>
      </root>
    </mxGraphModel>
  </diagram>
</mxfile>
